<svg xmlns="http://www.w3.org/2000/svg" viewBox="0 0 120 120" xml:space="preserve">
  <path fill="currentcolor" d="M60,0C26.864,0,0,26.864,0,60s26.864,60,60,60s60-26.864,60-60S93.136,0,60,0z M59.094,11.915
    c4.286-0.009,7.769,3.457,7.781,7.744c0.003,4.294-3.476,7.776-7.769,7.779c-0.004,0-0.008,0-0.012,0
    c-4.285-0.013-7.749-3.494-7.741-7.779c-0.001-4.275,3.463-7.742,7.739-7.744C59.093,11.915,59.093,11.915,59.094,11.915z
    M92.715,36.979l-23.08,2.918l0.012,23.099l11.188,37.334c0.594,2.329-0.813,4.7-3.142,5.294c-0.007,0.002-0.013,0.003-0.02,0.005
    c-2.327,0.588-4.713-0.706-5.299-3.054L60.915,68.591h-3.525l-10.541,34.687c-0.88,2.268-3.407,3.304-5.664,2.424
    c-2.245-0.871-3.607-3.421-2.725-5.689l9.682-36.64V39.894l-21.271-2.889c-2.184-0.176-3.666-2.094-3.489-4.278
    c0.165-2.198,2.151-3.831,4.325-3.656l25.84,2.221h11.329l27.506-2.266c2.181-0.091,4.023,1.604,4.114,3.785
    c0,0.011,0.001,0.023,0.001,0.034c0.094,2.174-1.6,4.042-3.784,4.136L92.715,36.979z"/>
</svg>
