<svg xmlns="http://www.w3.org/2000/svg" viewBox="0 0 105.928 120">
  <path fill="currentcolor" d="M103.818,28.403L55.474.668c-1.552-.891-3.468-.891-5.02,0L2.111,28.403c-1.305.749-2.111,2.133-2.111,3.633v55.928c0,1.497.806,2.884,2.111,3.633l48.343,27.735c1.552.891,3.468.891,5.02,0l48.343-27.735c1.305-.749,2.111-2.133,2.111-3.633v-55.928c0-1.497-.806-2.884-2.111-3.633h0ZM100.781,34.278l-46.668,80.323c-.315.541-1.148.32-1.148-.307v-52.594c0-1.051-.565-2.023-1.482-2.551L5.644,32.85c-.545-.313-.322-1.141.309-1.141h93.337c1.325,0,2.154,1.428,1.491,2.569h0Z"/>
</svg>