<svg xmlns="http://www.w3.org/2000/svg" viewBox="0 0 120 120" xml:space="preserve">
  <path fill="currentcolor" d="M59.996,1.482C26.866,1.482,0,28.344,0,61.485
    c0,26.506,17.19,48.995,41.035,56.93c3,0.55,4.095-1.302,4.095-2.892c0-1.424-0.052-5.198-0.081-10.205
    c-16.69,3.626-20.212-8.043-20.212-8.043c-2.728-6.931-6.662-8.777-6.662-8.777c-5.448-3.723,0.412-3.647,0.412-3.647
    c6.021,0.424,9.19,6.183,9.19,6.183c5.352,9.169,14.043,6.521,17.462,4.985c0.545-3.877,2.095-6.521,3.809-8.021
    c-13.323-1.514-27.33-6.662-27.33-29.654c0-6.55,2.338-11.906,6.176-16.1c-0.617-1.518-2.676-7.618,0.588-15.879
    c0,0,5.038-1.613,16.5,6.151c4.786-1.331,9.919-1.996,15.021-2.02c5.095,0.023,10.228,0.689,15.021,2.02
    c11.455-7.764,16.483-6.151,16.483-6.151c3.273,8.261,1.214,14.361,0.597,15.879c3.845,4.194,6.167,9.55,6.167,16.1
    c0,23.05-14.028,28.122-27.395,29.607c2.154,1.852,4.073,5.514,4.073,11.111c0,8.021-0.074,14.492-0.074,16.46
    c0,1.604,1.081,3.471,4.126,2.885C102.824,110.458,120,87.985,120,61.485C120,28.344,93.134,1.482,59.996,1.482z"/>
</svg>
