<svg xmlns="http://www.w3.org/2000/svg" viewBox="0 0 120 116.314">
  <path d="M2.401,113.964c-6.607-6.607.542-15.685,19.939-25.325l12.205-6.065,4.756-10.404c2.615-5.723,6.52-15.058,8.675-20.748l3.919-10.345-2.7-7.656c-3.32-9.413-4.504-23.559-2.398-28.645,2.853-6.89,12.203-6.183,15.902,1.203,2.891,5.768,2.594,16.214-.832,29.388l-2.808,10.8,2.474,4.2c1.361,2.311,5.336,7.796,8.833,12.189l6.572,8.175,8.18-1.068c25.983-3.391,34.882,2.372,34.882,10.635,0,10.427-20.402,11.288-37.535-.745-3.855-2.707-6.503-5.397-6.503-5.397,0,0-10.734,2.186-16.018,3.61-5.454,1.471-8.175,2.391-16.167,5.089,0,0-2.804,4.072-4.631,7.032-6.796,11.012-14.733,20.137-20.399,23.46-6.345,3.716-12.997,3.971-16.346.62ZM12.769,110.259c3.714-2.294,11.231-11.186,16.433-19.437l2.106-3.341-9.592,4.822C6.9,99.752.123,106.772,3.646,111.018c1.981,2.389,4.351,2.191,9.123-.759h0ZM109.002,83.248c3.631-2.544,3.106-7.671-1.002-9.739-3.195-1.608-5.772-1.938-14.075-1.816-5.103.349-13.306,1.377-14.697,1.688,0,0,4.506,3.115,6.508,4.261,2.665,1.521,9.137,4.346,13.863,5.791,4.664,1.427,7.359,1.276,9.404-.186h0ZM70.307,67.166c-2.198-2.311-5.937-7.133-8.307-10.717-3.101-4.065-4.655-6.935-4.655-6.935,0,0-2.266,7.289-4.124,11.675l-5.801,14.334-1.681,3.252s8.939-2.931,13.488-4.119c4.817-1.259,14.594-3.181,14.594-3.181l-3.513-4.308ZM57.838,17.158c.561-4.707.799-9.404-.712-11.774-4.193-4.584-9.255-.762-8.397,10.137.288,3.667,1.2,9.934,2.417,13.797l2.214,7.025,1.559-5.289c.856-2.91,2.169-9.161,2.919-13.896h0Z" fill="currentcolor"/>
</svg>