<svg xmlns="http://www.w3.org/2000/svg" viewBox="0 0 120 120" xml:space="preserve">
  <path fill="#111720" d="M107.986,24.794c-0.933-2.091-2.453-3.546-2.453-3.546c-0.004-0.005-0.008-0.01-0.011-0.015L87.459,3.516
    c-0.01-0.01-0.02-0.02-0.03-0.03c0,0-1.542-1.468-3.828-2.449c-2.692-1.155-5.466-1.033-5.466-1.033L78.176,0L23.592,0
    C16.76,0,11.199,5.566,11.199,12.397v95.206c0,6.832,5.561,12.397,12.393,12.397h72.801c6.832,0,12.393-5.565,12.393-12.397V29.318
    C108.786,29.318,108.981,27.025,107.986,24.794z M104.714,29.231v78.372c0,4.647-3.674,8.325-8.321,8.325H23.592
    c-4.647,0-8.321-3.678-8.321-8.325V12.398c0-4.647,3.674-8.325,8.321-8.325v0h54.585c0.014,0,0.028,0,0.041,0
    c0,0,2.183,0.021,3.779,0.706c1.537,0.659,2.626,1.658,2.633,1.664c0,0,0.008,0.008,0.008,0.008l18.017,17.675
    c0,0,1.085,1.146,1.612,2.325c0.425,0.952,0.451,2.694,0.451,2.694C104.716,29.174,104.714,29.202,104.714,29.231z"/>
  <path fill="#111720" d="M35.566,71.447c-2.802-2.802,0.23-6.652,8.456-10.74l5.176-2.572l2.017-4.412
    c1.109-2.427,2.765-6.386,3.679-8.799l1.662-4.387l-1.145-3.247c-1.408-3.992-1.91-9.991-1.017-12.148
    c1.21-2.922,5.175-2.622,6.744,0.51c1.226,2.446,1.1,6.876-0.353,12.463l-1.191,4.58l1.049,1.781
    c0.577,0.98,2.263,3.306,3.746,5.169l2.787,3.467l3.469-0.453c11.019-1.438,14.793,1.006,14.793,4.51
    c0,4.422-8.652,4.787-15.918-0.316c-1.635-1.148-2.758-2.289-2.758-2.289s-4.552,0.927-6.793,1.531
    c-2.313,0.624-3.467,1.014-6.856,2.158c0,0-1.189,1.727-1.964,2.982c-2.882,4.67-6.248,8.54-8.651,9.949
    C39.807,72.76,36.986,72.868,35.566,71.447z M39.963,69.876c1.575-0.973,4.763-4.744,6.969-8.243l0.893-1.417l-4.068,2.045
    c-6.283,3.159-9.157,6.136-7.663,7.937C36.934,71.211,37.939,71.127,39.963,69.876L39.963,69.876z M80.774,58.421
    c1.54-1.079,1.317-3.253-0.425-4.13c-1.355-0.682-2.448-0.822-5.969-0.77c-2.164,0.148-5.643,0.584-6.233,0.716
    c0,0,1.911,1.321,2.76,1.807c1.13,0.645,3.875,1.843,5.879,2.456C78.764,59.105,79.907,59.041,80.774,58.421L80.774,58.421z
    M64.364,51.601c-0.932-0.98-2.518-3.025-3.523-4.545c-1.315-1.724-1.974-2.941-1.974-2.941s-0.961,3.091-1.749,4.951l-2.46,6.079
    l-0.713,1.379c0,0,3.791-1.243,5.72-1.747c2.043-0.534,6.189-1.349,6.189-1.349L64.364,51.601z M59.076,30.393
    c0.238-1.996,0.339-3.988-0.302-4.993c-1.778-1.944-3.925-0.323-3.561,4.299c0.122,1.555,0.509,4.213,1.025,5.851l0.939,2.979
    l0.661-2.243C58.201,35.052,58.758,32.401,59.076,30.393L59.076,30.393z"/>
  <path fill="#111720" d="M48.419,84.839c-0.906-0.278-2.086-0.417-3.539-0.417H40.33v18.37h3.042v-7.173h1.575
    c1.759,0,3.06-0.193,3.903-0.579c0.852-0.386,1.53-1.014,2.032-1.884s0.754-1.911,0.754-3.122c0-1.319-0.31-2.445-0.929-3.378
    C50.087,85.714,49.325,85.108,48.419,84.839z M47.665,92.43c-0.511,0.502-1.44,0.754-2.786,0.754h-1.507v-6.406l1.507,0
    c0.879,0,1.521,0.063,1.924,0.188c0.413,0.117,0.79,0.44,1.13,0.969c0.341,0.52,0.511,1.202,0.511,2.046
    C48.446,91.111,48.185,91.927,47.665,92.43z M62.886,85.485c-1.193-0.709-2.79-1.063-4.791-1.063h-4.132v18.37h4.36
    c2.099,0,3.714-0.431,4.845-1.292c1.139-0.861,1.983-1.992,2.53-3.391c0.556-1.409,0.834-3.01,0.834-4.805
    c0-1.705-0.31-3.257-0.929-4.657C64.995,87.248,64.088,86.194,62.886,85.485z M62.119,98.526c-0.799,1.22-2.082,1.83-3.849,1.83
    h-1.265V86.858l1.265,0c3.365,0,5.047,2.252,5.047,6.756C63.317,95.659,62.918,97.297,62.119,98.526z M79.655,86.858v-2.436H69.454
    v18.37h3.042v-8.008h5.733v-2.436h-5.733v-5.491H79.655z"/>
</svg>
